<svg width="62" height="44" viewBox="0 0 62 44" fill="none" xmlns="http://www.w3.org/2000/svg">
<path d="M21.3236 35V8.81818H11.7355C9.87755 8.81818 8.3392 9.125 7.12045 9.73864C5.9017 10.3437 4.98977 11.1662 4.38466 12.206C3.77954 13.2372 3.47698 14.4006 3.47698 15.696C3.47698 16.7869 3.67727 17.7074 4.07784 18.4574C4.4784 19.1989 5.01534 19.7955 5.68863 20.2472C6.35341 20.6903 7.08636 21.0142 7.8875 21.2188V21.4744C7.01818 21.517 6.17017 21.7983 5.34346 22.3182C4.50824 22.8295 3.81789 23.5582 3.27244 24.5043C2.72698 25.4503 2.45426 26.6009 2.45426 27.956C2.45426 29.294 2.7696 30.4957 3.40028 31.5611C4.02244 32.6179 4.98551 33.4574 6.28949 34.0795C7.59346 34.6932 9.25966 35 11.2881 35H21.3236ZM17.3733 31.6122H11.6716C9.77954 31.6122 8.42443 31.2457 7.60625 30.5128C6.78806 29.7798 6.37897 28.8636 6.37897 27.7642C6.37897 26.9375 6.58778 26.179 7.00539 25.4886C7.42301 24.7983 8.0196 24.2486 8.79517 23.8395C9.56221 23.4304 10.4741 23.2259 11.531 23.2259H17.3733V31.6122ZM17.3733 20.1449H12.0807C11.1943 20.1449 10.3974 19.9744 9.69005 19.6335C8.97414 19.2926 8.40738 18.8153 7.98977 18.2017C7.56363 17.5795 7.35056 16.8466 7.35056 16.0028C7.35056 14.9205 7.72983 14.0128 8.48835 13.2798C9.24687 12.5469 10.4102 12.1804 11.9784 12.1804H17.3733V20.1449Z" fill="white"/>
<path d="M40.4764 35V8.81818H44.4267V21.321H44.7463L55.7278 8.81818H60.7009L50.1412 20.6051L60.7392 35H55.9835L47.5205 23.3026L44.4267 26.8565V35H40.4764Z" fill="white"/>
<path d="M17.7764 8.81818H22.5704L30.9057 29.1705H31.2125L39.5477 8.81818H44.3418V35H40.5832V16.054H40.3403L32.6187 34.9616H29.4994L21.7778 16.0412H21.5349V35H17.7764V8.81818Z" fill="white"/>
</svg>
